<svg xmlns="http://www.w3.org/2000/svg" viewBox="0 0 64 64" fill="none">
  <path d="M16 18c-3 0-5 2-5 5v2c0 4 3 7 7 8l4 1v8c0 6 4 10 10 10s10-4 10-10v-8l4-1c4-1 7-4 7-8v-2c0-3-2-5-5-5-2 0-4 1-5 3l-3 4c-2-2-5-3-8-3s-6 1-8 3l-3-4c-1-2-3-3-5-3z" fill="#E0234E"/>
  <circle cx="26" cy="34" r="2.2" fill="#fff"/>
  <circle cx="38" cy="34" r="2.2" fill="#fff"/>
  <path d="M28 42c2 2 6 2 8 0" stroke="#fff" stroke-width="1.8" stroke-linecap="round" fill="none"/>
  <path d="M14 22c-1 1-1 3 0 4M50 22c1 1 1 3 0 4" stroke="#fff" stroke-width="1.5" stroke-linecap="round"/>
</svg>
